<?xml version="1.0" encoding="UTF-8"?>
<svg width="200px" height="200px" viewBox="0 0 200 200" version="1.1" xmlns="http://www.w3.org/2000/svg" xmlns:xlink="http://www.w3.org/1999/xlink">
    <!-- Generator: Sketch 54.1 (76490) - https://sketchapp.com -->
    <title>chicago</title>
    <desc>Created with Sketch.</desc>
    <g id="chicago" stroke="none" stroke-width="1" fill="none" fill-rule="evenodd">
        <g id="chicago_BGD" fill="#FFFFFF">
            <g id="chicago" transform="translate(0.000000, 43.000000)">
                <g id="g10" transform="translate(99.578057, 57.135112) scale(-1, 1) rotate(-180.000000) translate(-99.578057, -57.135112) translate(0.000000, 0.557336)" fill-rule="nonzero">
                    <g id="g12">
                        <path d="M103.756622,110.621544 C45.0256529,110.621544 23.3986492,60.9259896 6.71809266,56.2215897 C23.3986492,51.5190476 45.0256529,1.8234764 103.756622,1.8234764 C169.708013,1.8234764 195.37721,50.5492876 195.37721,50.5492876 L159.481853,50.5492876 C159.481853,50.5492876 147.685903,26.8540082 103.756622,26.8540082 C76.6199137,26.8540082 57.2335851,38.569999 57.2335851,56.2215897 C57.2335851,73.8757137 76.6199137,85.5903534 103.756622,85.5903534 C147.685903,85.5903534 159.481853,61.8964251 159.481853,61.8964251 L195.37721,61.8964251 C195.37721,61.8964251 169.708013,110.621544 103.756622,110.621544" id="path14"></path>
                        <path d="M11.1497888,56.2215897 C15.6362021,53.5516253 20.3962864,48.6538477 26.077974,42.8074212 C33.8158641,34.8444791 43.44675,24.9349238 55.9856526,17.1508351 C70.6224455,8.06444424 86.2480991,3.64627724 103.756622,3.64627724 C137.202697,3.64627724 159.876789,16.6091747 173.007591,27.4839638 C183.240502,35.9574569 189.441345,44.5187722 192.151894,48.7264699 L160.535355,48.7264699 C159.284047,46.6991277 155.885397,41.9450745 149.138393,37.2089235 C141.22295,31.6534925 126.92506,25.0305149 103.756622,25.0305149 C90.0038796,25.0305149 78.1085213,27.9154749 69.3552725,33.3714303 C60.3638803,38.9756701 55.4114754,47.0909499 55.4114754,56.2215897 C55.4114754,65.3527361 60.3638803,73.4693671 69.3552725,79.0742825 C78.1085213,84.5302379 90.0038796,87.4138467 103.756622,87.4138467 C126.92506,87.4138467 141.22295,80.7922202 149.138393,75.2361137 C155.885397,70.5011449 159.284047,65.7472606 160.535355,63.7199184 L192.151894,63.7199184 C189.441345,67.9276161 183.240502,76.4882559 173.007591,84.961749 C159.876789,95.8351532 137.202697,108.798051 103.756622,108.798051 C86.2480991,108.798051 70.6210953,104.380593 55.9843024,95.2935265 C43.4460749,87.5082556 33.815189,77.5978558 26.0759487,69.6350827 C20.3956113,63.7891628 15.6362021,58.8913852 11.1497888,56.2215897 Z M103.756622,0 C62.5962854,0 39.0472564,24.2309949 23.4651471,40.2654745 C16.4794257,47.4532166 10.96189,53.1307542 6.22428676,54.4666653 L0,56.2209142 L6.22362854,57.9763452 C10.96189,59.3122563 16.4794257,64.9899628 23.464472,72.177536 C39.0467501,88.2121845 62.5956102,112.444362 103.756622,112.444362 C138.369617,112.444362 161.855186,98.9675353 175.463287,87.6612689 C190.232907,75.3898026 196.72067,63.2575006 196.989025,62.7467807 L198.398307,60.0736074 L158.353076,60.0736074 L157.850123,61.0837318 C157.8243,61.1343985 154.895186,66.8048428 146.832739,72.3992871 C139.359828,77.5860336 125.820756,83.7675357 103.756622,83.7675357 C90.8729091,83.7675357 79.3407575,81.0013046 71.2823611,75.978887 C63.2832052,70.9927804 59.0558635,64.1605495 59.0558635,56.2215897 C59.0558635,48.2831366 63.2832052,41.4517501 71.2823611,36.4661502 C79.3407575,31.4437325 90.8729091,28.6775015 103.756622,28.6775015 C125.820756,28.6775015 139.359828,34.8596791 146.832739,40.0457501 C154.895186,45.64087 157.8243,51.3111454 157.852654,51.3672165 L158.358308,52.368052 L159.481177,52.3732876 L198.398307,52.3732876 L196.989025,49.7001143 C196.72067,49.1888877 190.232907,37.0565857 175.463287,24.7844438 C161.855186,13.4774681 138.369617,0 103.756622,0 L103.756622,0 Z" id="path16"></path>
                    </g>
                </g>
            </g>
        </g>
    </g>
</svg>